<svg xmlns="http://www.w3.org/2000/svg" viewBox="0 0 500 500"><g id="freepik--background-complete--inject-33"><path d="M444.71,330.2H264a5.87,5.87,0,0,1-5.86-5.86V61.06A5.87,5.87,0,0,1,264,55.2H444.71a5.87,5.87,0,0,1,5.86,5.86V324.34A5.87,5.87,0,0,1,444.71,330.2ZM264,55.45a5.62,5.62,0,0,0-5.61,5.61V324.34A5.62,5.62,0,0,0,264,330H444.71a5.62,5.62,0,0,0,5.61-5.61V61.06a5.62,5.62,0,0,0-5.61-5.61Z" style="fill:#e0e0e0"></path><path d="M236.28,330.2H55.53a5.87,5.87,0,0,1-5.86-5.86V61.06a5.87,5.87,0,0,1,5.86-5.86H236.28a5.87,5.87,0,0,1,5.86,5.86V324.34A5.87,5.87,0,0,1,236.28,330.2ZM55.53,55.45a5.62,5.62,0,0,0-5.61,5.61V324.34A5.62,5.62,0,0,0,55.53,330H236.28a5.61,5.61,0,0,0,5.61-5.61V61.06a5.61,5.61,0,0,0-5.61-5.61Z" style="fill:#e0e0e0"></path><rect x="0.79" y="391.27" width="500" height="0.25" style="fill:#e0e0e0"></rect><rect x="52.46" y="405.53" width="16.06" height="0.25" style="fill:#e0e0e0"></rect><rect x="171.14" y="402.82" width="53.53" height="0.25" style="fill:#e0e0e0"></rect><rect x="69.52" y="414.82" width="36.25" height="0.25" style="fill:#e0e0e0"></rect><rect x="382.21" y="402.95" width="43.19" height="0.25" style="fill:#e0e0e0"></rect><rect x="431.24" y="402.69" width="6.33" height="0.25" style="fill:#e0e0e0"></rect><rect x="317" y="408.92" width="53.89" height="0.25" style="fill:#e0e0e0"></rect><rect x="60.84" y="71.38" width="169.83" height="131.97" style="fill:#ebebeb"></rect><rect x="65.97" y="76.85" width="159.54" height="121.06" style="fill:#fafafa"></rect><rect x="123.59" y="133.91" width="19.24" height="27.21" style="fill:#ebebeb"></rect><rect x="147.65" y="141.94" width="20.26" height="29.12" style="fill:#f0f0f0"></rect><rect x="136.63" y="96.25" width="29.12" height="20.26" transform="translate(26.01 242.42) rotate(-82.51)" style="fill:#f0f0f0"></rect><rect x="192.23" y="90.68" width="20.26" height="29.12" style="fill:#f0f0f0"></rect><rect x="168.03" y="87.62" width="20.26" height="29.12" style="fill:#f0f0f0"></rect><rect x="79.84" y="86.75" width="12.57" height="12.57" style="fill:#f5f5f5"></rect><rect x="96.29" y="87.93" width="12.57" height="12.57" transform="translate(-22.07 156.34) rotate(-69.06)" style="fill:#f0f0f0"></rect><path d="M86.14,88.35a.74.74,0,1,1-.74-.73.74.74,0,0,1,.74.73Z" style="fill:#ebebeb"></path><path d="M100.6,88.35a.74.74,0,1,1-.73-.73.74.74,0,0,1,.73.73Z" style="fill:#e0e0e0"></path><path d="M153.27,118.64a.74.74,0,1,1-.74-.74.74.74,0,0,1,.74.74Z" style="fill:#ebebeb"></path><path d="M134,135.88a.74.74,0,1,1-.74-.73A.74.74,0,0,1,134,135.88Z" style="fill:#ebebeb"></path><path d="M145,92.76a.74.74,0,1,1-.74-.73.74.74,0,0,1,.74.73Z" style="fill:#e0e0e0"></path><path d="M178.89,89.28a.74.74,0,1,1-.74-.74.74.74,0,0,1,.74.74Z" style="fill:#e0e0e0"></path><path d="M203.1,92a.74.74,0,1,1-.74-.74.74.74,0,0,1,.74.74Z" style="fill:#e0e0e0"></path><rect x="175.28" y="163.22" width="40.36" height="25.3" style="fill:#f5f5f5"></rect><rect x="78.93" y="158.39" width="35.23" height="27.81" style="fill:#f5f5f5"></rect><circle cx="300" cy="102.33" r="27.53" transform="translate(-2.16 6.56) rotate(-1.25)" style="fill:#e6e6e6"></circle><circle cx="300" cy="102.33" r="21.48" transform="translate(30.9 269.83) rotate(-50.73)" style="fill:#f5f5f5"></circle><polygon points="306.9 108.96 299.11 102.76 299.11 87.86 300.84 87.86 300.84 101.92 307.99 107.62 306.9 108.96" style="fill:#e0e0e0"></polygon><rect x="352.97" y="75.2" width="7.57" height="33.33" style="fill:#e0e0e0"></rect><rect x="389.49" y="75.2" width="7.57" height="33.33" style="fill:#e0e0e0"></rect><rect x="362.31" y="79.59" width="7.57" height="28.94" style="fill:#ebebeb"></rect><rect x="379.7" y="79.59" width="7.57" height="28.94" style="fill:#ebebeb"></rect><rect x="423.51" y="79.59" width="7.57" height="28.94" style="fill:#ebebeb"></rect><polygon points="397.05 82.44 404.44 80.75 410.56 109.01 403.17 110.69 397.05 82.44" style="fill:#ebebeb"></polygon><rect x="372.62" y="73.55" width="3.78" height="34.98" style="fill:#e0e0e0"></rect><rect x="417.58" y="73.55" width="3.78" height="34.98" style="fill:#e0e0e0"></rect><rect x="73.65" y="261.08" width="51.91" height="130.19" style="fill:#e0e0e0"></rect><rect x="78.12" y="264.79" width="42.96" height="123.53" style="fill:#f0f0f0"></rect><rect x="85.94" y="273.93" width="27.32" height="1.28" style="fill:#e0e0e0"></rect><rect x="85.94" y="279.43" width="27.32" height="1.28" style="fill:#e0e0e0"></rect><rect x="85.94" y="284.93" width="27.32" height="1.28" style="fill:#e0e0e0"></rect><rect x="85.94" y="290.43" width="27.32" height="1.28" style="fill:#e0e0e0"></rect><rect x="85.94" y="295.94" width="27.32" height="1.28" style="fill:#e0e0e0"></rect><rect x="85.94" y="301.44" width="27.32" height="1.28" style="fill:#e0e0e0"></rect><rect x="85.94" y="346.2" width="27.32" height="1.28" style="fill:#e0e0e0"></rect><rect x="85.94" y="351.7" width="27.32" height="1.28" style="fill:#e0e0e0"></rect><rect x="85.94" y="357.2" width="27.32" height="1.28" style="fill:#e0e0e0"></rect><rect x="85.94" y="362.7" width="27.32" height="1.28" style="fill:#e0e0e0"></rect><rect x="85.94" y="368.21" width="27.32" height="1.28" style="fill:#e0e0e0"></rect><rect x="85.94" y="373.71" width="27.32" height="1.28" style="fill:#e0e0e0"></rect><path d="M114.61,320.23a2,2,0,1,1-2-2.12h0A2.1,2.1,0,0,1,114.61,320.23Z" style="fill:#e0e0e0"></path><rect x="127.09" y="261.08" width="51.91" height="130.19" style="fill:#e0e0e0"></rect><rect x="131.57" y="264.79" width="42.96" height="123.53" style="fill:#f0f0f0"></rect><rect x="139.39" y="273.93" width="27.32" height="1.28" style="fill:#e0e0e0"></rect><rect x="139.39" y="279.43" width="27.32" height="1.28" style="fill:#e0e0e0"></rect><rect x="139.39" y="284.93" width="27.32" height="1.28" style="fill:#e0e0e0"></rect><rect x="139.39" y="290.43" width="27.32" height="1.28" style="fill:#e0e0e0"></rect><rect x="139.39" y="295.94" width="27.32" height="1.28" style="fill:#e0e0e0"></rect><rect x="139.39" y="301.44" width="27.32" height="1.28" style="fill:#e0e0e0"></rect><rect x="139.39" y="346.2" width="27.32" height="1.28" style="fill:#e0e0e0"></rect><rect x="139.39" y="351.7" width="27.32" height="1.28" style="fill:#e0e0e0"></rect><rect x="139.39" y="357.2" width="27.32" height="1.28" style="fill:#e0e0e0"></rect><rect x="139.39" y="362.7" width="27.32" height="1.28" style="fill:#e0e0e0"></rect><rect x="139.39" y="368.21" width="27.32" height="1.28" style="fill:#e0e0e0"></rect><rect x="139.39" y="373.71" width="27.32" height="1.28" style="fill:#e0e0e0"></rect><path d="M168,320.23a2.18,2.18,0,1,1-2.18-2.12A2.15,2.15,0,0,1,168,320.23Z" style="fill:#e0e0e0"></path><rect x="202.51" y="261.08" width="51.91" height="130.19" style="fill:#e0e0e0"></rect><rect x="206.98" y="264.79" width="42.96" height="123.53" style="fill:#f0f0f0"></rect><polygon points="216.79 273.93 244.11 273.93 242.12 275.2 214.8 275.2 216.79 273.93" style="fill:#e0e0e0"></polygon><rect x="214.8" y="279.43" width="27.32" height="1.28" style="fill:#e0e0e0"></rect><rect x="214.8" y="284.93" width="27.32" height="1.28" style="fill:#e0e0e0"></rect><rect x="214.8" y="290.43" width="27.32" height="1.28" style="fill:#e0e0e0"></rect><rect x="214.8" y="295.94" width="27.32" height="1.28" style="fill:#e0e0e0"></rect><rect x="214.8" y="301.44" width="27.32" height="1.28" style="fill:#e0e0e0"></rect><rect x="214.8" y="346.2" width="27.32" height="1.28" style="fill:#e0e0e0"></rect><rect x="214.8" y="351.7" width="27.32" height="1.28" style="fill:#e0e0e0"></rect><rect x="214.8" y="357.2" width="27.32" height="1.28" style="fill:#e0e0e0"></rect><rect x="214.8" y="362.7" width="27.32" height="1.28" style="fill:#e0e0e0"></rect><rect x="214.8" y="368.21" width="27.32" height="1.28" style="fill:#e0e0e0"></rect><rect x="214.8" y="373.71" width="27.32" height="1.28" style="fill:#e0e0e0"></rect><path d="M243.47,320.23a2,2,0,1,1-2.05-2.12h0A2.1,2.1,0,0,1,243.47,320.23Z" style="fill:#e0e0e0"></path><rect x="255.95" y="261.08" width="51.91" height="130.19" style="fill:#e0e0e0"></rect><rect x="260.43" y="264.79" width="42.96" height="123.53" style="fill:#f0f0f0"></rect><rect x="268.25" y="273.93" width="27.32" height="1.28" style="fill:#e0e0e0"></rect><rect x="268.25" y="279.43" width="27.32" height="1.28" style="fill:#e0e0e0"></rect><rect x="268.25" y="284.93" width="27.32" height="1.28" style="fill:#e0e0e0"></rect><rect x="268.25" y="290.43" width="27.32" height="1.28" style="fill:#e0e0e0"></rect><rect x="268.25" y="295.94" width="27.32" height="1.28" style="fill:#e0e0e0"></rect><rect x="268.25" y="301.44" width="27.32" height="1.28" style="fill:#e0e0e0"></rect><rect x="268.25" y="346.2" width="27.32" height="1.28" style="fill:#e0e0e0"></rect><rect x="268.25" y="351.7" width="27.32" height="1.28" style="fill:#e0e0e0"></rect><rect x="268.25" y="357.2" width="27.32" height="1.28" style="fill:#e0e0e0"></rect><rect x="268.25" y="362.7" width="27.32" height="1.28" style="fill:#e0e0e0"></rect><rect x="268.25" y="368.21" width="27.32" height="1.28" style="fill:#e0e0e0"></rect><rect x="268.25" y="373.71" width="27.32" height="1.28" style="fill:#e0e0e0"></rect><path d="M296.9,320.23a2.18,2.18,0,1,1-2.18-2.12A2.15,2.15,0,0,1,296.9,320.23Z" style="fill:#e0e0e0"></path><rect x="330.59" y="261.08" width="51.91" height="130.19" style="fill:#e0e0e0"></rect><rect x="335.06" y="264.79" width="42.96" height="123.53" style="fill:#f0f0f0"></rect><rect x="342.88" y="273.93" width="27.32" height="1.28" style="fill:#e0e0e0"></rect><rect x="342.88" y="279.43" width="27.32" height="1.28" style="fill:#e0e0e0"></rect><rect x="342.88" y="284.93" width="27.32" height="1.28" style="fill:#e0e0e0"></rect><rect x="342.88" y="290.43" width="27.32" height="1.28" style="fill:#e0e0e0"></rect><rect x="342.88" y="295.94" width="27.32" height="1.28" style="fill:#e0e0e0"></rect><rect x="342.88" y="301.44" width="27.32" height="1.28" style="fill:#e0e0e0"></rect><rect x="342.88" y="346.2" width="27.32" height="1.28" style="fill:#e0e0e0"></rect><rect x="342.88" y="351.7" width="27.32" height="1.28" style="fill:#e0e0e0"></rect><rect x="342.88" y="357.2" width="27.32" height="1.28" style="fill:#e0e0e0"></rect><rect x="342.88" y="362.7" width="27.32" height="1.28" style="fill:#e0e0e0"></rect><rect x="342.88" y="368.21" width="27.32" height="1.28" style="fill:#e0e0e0"></rect><rect x="342.88" y="373.71" width="27.32" height="1.28" style="fill:#e0e0e0"></rect><path d="M371.55,320.23a2,2,0,1,1-2.05-2.12h0A2.09,2.09,0,0,1,371.55,320.23Z" style="fill:#e0e0e0"></path><rect x="384.03" y="261.08" width="51.91" height="130.19" style="fill:#e0e0e0"></rect><rect x="388.51" y="264.79" width="42.96" height="123.53" style="fill:#f0f0f0"></rect><rect x="396.33" y="273.93" width="27.32" height="1.28" style="fill:#e0e0e0"></rect><rect x="396.33" y="279.43" width="27.32" height="1.28" style="fill:#e0e0e0"></rect><rect x="396.33" y="284.93" width="27.32" height="1.28" style="fill:#e0e0e0"></rect><rect x="396.33" y="290.43" width="27.32" height="1.28" style="fill:#e0e0e0"></rect><rect x="396.33" y="295.94" width="27.32" height="1.28" style="fill:#e0e0e0"></rect><rect x="396.33" y="301.44" width="27.32" height="1.28" style="fill:#e0e0e0"></rect><rect x="396.33" y="346.2" width="27.32" height="1.28" style="fill:#e0e0e0"></rect><rect x="396.33" y="351.7" width="27.32" height="1.28" style="fill:#e0e0e0"></rect><rect x="396.33" y="357.2" width="27.32" height="1.28" style="fill:#e0e0e0"></rect><rect x="396.33" y="362.7" width="27.32" height="1.28" style="fill:#e0e0e0"></rect><rect x="396.33" y="368.21" width="27.32" height="1.28" style="fill:#e0e0e0"></rect><rect x="396.33" y="373.71" width="27.32" height="1.28" style="fill:#e0e0e0"></rect><path d="M425,320.23a2.19,2.19,0,1,1-2.19-2.12A2.16,2.16,0,0,1,425,320.23Z" style="fill:#e0e0e0"></path><rect x="346.05" y="106.22" width="90.55" height="9.64" style="fill:#ebebeb"></rect><rect x="352.97" y="132.3" width="7.57" height="33.33" style="fill:#e0e0e0"></rect><rect x="389.49" y="132.3" width="7.57" height="33.33" style="fill:#e0e0e0"></rect><rect x="362.31" y="136.68" width="7.57" height="28.94" style="fill:#ebebeb"></rect><rect x="379.7" y="136.68" width="7.57" height="28.94" style="fill:#ebebeb"></rect><rect x="423.51" y="136.68" width="7.57" height="28.94" style="fill:#ebebeb"></rect><polygon points="397.05 139.53 404.44 137.84 410.56 166.1 403.17 167.78 397.05 139.53" style="fill:#ebebeb"></polygon><rect x="372.62" y="130.65" width="3.78" height="34.98" style="fill:#e0e0e0"></rect><rect x="417.58" y="130.65" width="3.78" height="34.98" style="fill:#e0e0e0"></rect><rect x="346.05" y="163.32" width="90.55" height="9.64" style="fill:#ebebeb"></rect></g><g id="freepik--Shadow--inject-33"><path d="M464.25,454.44c0,3.38-93.52,6.13-208.87,6.13S46.5,457.82,46.5,454.44,140,448.3,255.38,448.3,464.25,451.05,464.25,454.44Z" style="fill:#ebebeb"></path></g><g id="freepik--speech-bubble--inject-33"><circle cx="345.83" cy="197.41" r="22.07" style="fill:#000000"></circle><polygon points="342.51 214.39 337.76 217.51 340.31 224.21 345.5 219.44 342.51 214.39" style="fill:#000000"></polygon><text transform="translate(341.63 208.52)" style="font-size:29.30406951904297px;fill:#fff;font-family:Montserrat-Bold, Montserrat;font-weight:700">!</text><path d="M370.36,193.21a.24.24,0,0,1-.25-.22,21.71,21.71,0,0,0-11.62-16.77.24.24,0,0,1-.11-.34.25.25,0,0,1,.33-.11,22.2,22.2,0,0,1,11.89,17.17.24.24,0,0,1-.22.27Z" style="fill:#000000"></path><path d="M370.49,199.76h-.05a.25.25,0,0,1-.19-.3,8,8,0,0,0,.09-3.16.24.24,0,0,1,.2-.29.26.26,0,0,1,.29.2,8.27,8.27,0,0,1-.09,3.36A.26.26,0,0,1,370.49,199.76Z" style="fill:#000000"></path></g><g id="freepik--Sheets--inject-33"><path d="M242.22,180s27.11,3,34.16,20.42l22.05-13.93s-18-18.58-34.44-17.87Z" style="fill:#263238"></path><path d="M242.22,180s27.11,3,34.16,20.42l22.05-13.93s-18-18.58-34.44-17.87Z" style="fill:#fff;opacity:0.9"></path><line x1="257.57" y1="179.78" x2="269.42" y2="172.32" style="fill:#ebebeb"></line><path d="M257.57,180a.25.25,0,0,1-.13-.46l11.84-7.46a.26.26,0,0,1,.35.08.24.24,0,0,1-.08.34L257.7,180A.2.2,0,0,1,257.57,180Z" style="fill:#263238"></path><line x1="262.84" y1="181.73" x2="274.69" y2="174.27" style="fill:#ebebeb"></line><path d="M262.84,182a.27.27,0,0,1-.21-.12.26.26,0,0,1,.08-.35l11.85-7.45a.24.24,0,0,1,.34.08.25.25,0,0,1-.08.34L263,181.94A.33.33,0,0,1,262.84,182Z" style="fill:#263238"></path><line x1="268.12" y1="183.67" x2="279.96" y2="176.22" style="fill:#ebebeb"></line><path d="M268.12,183.92a.25.25,0,0,1-.14-.46L279.83,176a.25.25,0,0,1,.34.08.25.25,0,0,1-.08.35l-11.84,7.45A.22.22,0,0,1,268.12,183.92Z" style="fill:#263238"></path><line x1="271.98" y1="186.89" x2="283.82" y2="179.44" style="fill:#ebebeb"></line><path d="M272,187.14a.25.25,0,0,1-.14-.46l11.85-7.46a.26.26,0,0,1,.34.08.25.25,0,0,1-.08.35l-11.84,7.45A.22.22,0,0,1,272,187.14Z" style="fill:#263238"></path><line x1="276.27" y1="190.32" x2="288.12" y2="182.86" style="fill:#ebebeb"></line><path d="M276.27,190.57a.25.25,0,0,1-.13-.46L288,182.65a.27.27,0,0,1,.35.08.26.26,0,0,1-.08.35l-11.85,7.45A.2.2,0,0,1,276.27,190.57Z" style="fill:#263238"></path><path d="M46.31,217.19s7.54,26.21-5.83,39.37l21.29,15.06s10.3-23.74,3.37-38.66Z" style="fill:#263238"></path><path d="M46.31,217.19s7.54,26.21-5.83,39.37l21.29,15.06s10.3-23.74,3.37-38.66Z" style="fill:#fff;opacity:0.9"></path><line x1="52.35" y1="231.31" x2="63.76" y2="239.41" style="fill:#ebebeb"></line><path d="M63.76,239.66a.24.24,0,0,1-.14,0l-11.41-8.1a.25.25,0,0,1-.06-.35.24.24,0,0,1,.34-.06l11.42,8.11a.24.24,0,0,1,.06.34A.26.26,0,0,1,63.76,239.66Z" style="fill:#263238"></path><line x1="52.56" y1="236.92" x2="63.98" y2="245.03" style="fill:#ebebeb"></line><path d="M64,245.27a.28.28,0,0,1-.15,0l-11.41-8.1a.25.25,0,0,1-.06-.35.25.25,0,0,1,.35-.06l11.41,8.1a.25.25,0,0,1,.06.35A.25.25,0,0,1,64,245.27Z" style="fill:#263238"></path><line x1="52.78" y1="242.54" x2="64.19" y2="250.64" style="fill:#ebebeb"></line><path d="M64.19,250.89a.19.19,0,0,1-.14,0l-11.42-8.1a.25.25,0,0,1-.06-.35.26.26,0,0,1,.35-.06l11.41,8.11a.25.25,0,0,1-.14.45Z" style="fill:#263238"></path><line x1="51.27" y1="247.33" x2="62.69" y2="255.44" style="fill:#ebebeb"></line><path d="M62.69,255.69a.3.3,0,0,1-.15-.05l-11.41-8.1a.25.25,0,0,1,.29-.41l11.41,8.1a.25.25,0,0,1,.06.35A.24.24,0,0,1,62.69,255.69Z" style="fill:#263238"></path><line x1="49.74" y1="252.61" x2="61.16" y2="260.72" style="fill:#ebebeb"></line><path d="M61.16,261a.3.3,0,0,1-.15-.05l-11.41-8.1a.25.25,0,0,1,.29-.41l11.41,8.1a.25.25,0,0,1,.06.35A.26.26,0,0,1,61.16,261Z" style="fill:#263238"></path><path d="M238,309.87s-13.63-23.62-3.82-39.61l-24.3-9.49s-4.27,25.53,6,38.33Z" style="fill:#263238"></path><path d="M238,309.87s-13.63-23.62-3.82-39.61l-24.3-9.49s-4.27,25.53,6,38.33Z" style="fill:#fff;opacity:0.7000000000000001"></path><line x1="228.77" y1="297.63" x2="215.74" y2="292.51" style="fill:#ebebeb"></line><path d="M228.77,297.88l-.09,0-13-5.11a.25.25,0,0,1,.18-.47l13,5.12a.24.24,0,0,1,.14.32A.25.25,0,0,1,228.77,297.88Z" style="fill:#263238"></path><line x1="227.21" y1="292.23" x2="214.18" y2="287.11" style="fill:#ebebeb"></line><path d="M227.21,292.48l-.09,0-13-5.11A.25.25,0,0,1,214,287a.25.25,0,0,1,.32-.14l13,5.12a.24.24,0,0,1,.14.32A.25.25,0,0,1,227.21,292.48Z" style="fill:#263238"></path><line x1="225.65" y1="286.83" x2="212.62" y2="281.72" style="fill:#ebebeb"></line><path d="M225.65,287.08a.15.15,0,0,1-.09,0l-13-5.11a.25.25,0,0,1,.18-.47l13,5.12a.24.24,0,0,1,.14.32A.25.25,0,0,1,225.65,287.08Z" style="fill:#263238"></path><line x1="225.96" y1="281.81" x2="212.93" y2="276.7" style="fill:#ebebeb"></line><path d="M226,282.06h-.1l-13-5.12a.25.25,0,0,1-.14-.32.25.25,0,0,1,.33-.14l13,5.11a.25.25,0,0,1-.09.48Z" style="fill:#263238"></path><line x1="226.17" y1="276.32" x2="213.14" y2="271.21" style="fill:#ebebeb"></line><path d="M226.17,276.57a.15.15,0,0,1-.09,0l-13-5.11a.25.25,0,0,1,.18-.47l13,5.12a.25.25,0,0,1-.09.48Z" style="fill:#263238"></path><path d="M386.47,133.37S359.3,135.7,349,120.05l-18.89,18s21.31,14.69,37.28,10.77Z" style="fill:#263238"></path><path d="M386.47,133.37S359.3,135.7,349,120.05l-18.89,18s21.31,14.69,37.28,10.77Z" style="fill:#fff;opacity:0.8"></path><line x1="371.46" y1="136.57" x2="361.3" y2="146.2" style="fill:#ebebeb"></line><path d="M361.3,146.45a.26.26,0,0,1-.18-.07.26.26,0,0,1,0-.36l10.16-9.63a.24.24,0,0,1,.35,0,.25.25,0,0,1,0,.35l-10.16,9.63A.22.22,0,0,1,361.3,146.45Z" style="fill:#263238"></path><line x1="365.91" y1="135.7" x2="355.75" y2="145.33" style="fill:#ebebeb"></line><path d="M355.75,145.58a.27.27,0,0,1-.18-.08.25.25,0,0,1,0-.35l10.15-9.64a.25.25,0,1,1,.35.37l-10.16,9.63A.22.22,0,0,1,355.75,145.58Z" style="fill:#263238"></path><line x1="360.35" y1="134.82" x2="350.2" y2="144.45" style="fill:#ebebeb"></line><path d="M350.2,144.71a.25.25,0,0,1-.18-.08.25.25,0,0,1,0-.36l10.15-9.63a.25.25,0,0,1,.36,0,.25.25,0,0,1,0,.35l-10.16,9.64A.28.28,0,0,1,350.2,144.71Z" style="fill:#263238"></path><line x1="355.94" y1="132.42" x2="345.78" y2="142.05" style="fill:#ebebeb"></line><path d="M345.78,142.3a.26.26,0,0,1-.18-.07.26.26,0,0,1,0-.36l10.16-9.63a.24.24,0,0,1,.35,0,.25.25,0,0,1,0,.35L346,142.23A.24.24,0,0,1,345.78,142.3Z" style="fill:#263238"></path><line x1="351.05" y1="129.9" x2="340.9" y2="139.53" style="fill:#ebebeb"></line><path d="M340.9,139.78a.24.24,0,0,1-.18-.07.25.25,0,0,1,0-.36l10.15-9.63a.25.25,0,0,1,.36,0,.25.25,0,0,1,0,.35l-10.16,9.63A.23.23,0,0,1,340.9,139.78Z" style="fill:#263238"></path><path d="M135.69,173.67s-26.86-4.71-32.83-22.48L80,163.73s16.84,19.66,33.28,20Z" style="fill:#263238"></path><path d="M135.69,173.67s-26.86-4.71-32.83-22.48L80,163.73s16.84,19.66,33.28,20Z" style="fill:#fff;opacity:0.8"></path><line x1="115.22" y1="170.65" x2="102.93" y2="177.36" style="fill:#ebebeb"></line><path d="M102.93,177.61a.25.25,0,0,1-.12-.47l12.29-6.71a.25.25,0,0,1,.34.1.26.26,0,0,1-.1.34l-12.29,6.71A.21.21,0,0,1,102.93,177.61Z" style="fill:#263238"></path><line x1="110.07" y1="168.38" x2="97.79" y2="175.1" style="fill:#ebebeb"></line><path d="M97.79,175.35a.26.26,0,0,1-.22-.13.25.25,0,0,1,.1-.34L110,168.16a.26.26,0,0,1,.34.1.25.25,0,0,1-.1.34l-12.28,6.71A.19.19,0,0,1,97.79,175.35Z" style="fill:#263238"></path><line x1="106.42" y1="164.93" x2="94.14" y2="171.64" style="fill:#ebebeb"></line><path d="M94.14,171.89a.23.23,0,0,1-.22-.13.25.25,0,0,1,.1-.34l12.28-6.71a.25.25,0,0,1,.24.44l-12.28,6.71Z" style="fill:#263238"></path><line x1="102.34" y1="161.24" x2="90.06" y2="167.96" style="fill:#ebebeb"></line><path d="M90.06,168.21a.26.26,0,0,1-.22-.13.26.26,0,0,1,.1-.34L102.22,161a.25.25,0,0,1,.34.1.24.24,0,0,1-.1.34l-12.28,6.72Z" style="fill:#263238"></path><path d="M421.37,210.82l-6.69,37.68s14.63,1.48,22.71,9.22a35.05,35.05,0,0,1,5.18,5.84l7.23-38.44S445.25,209.93,421.37,210.82Z" style="fill:#263238"></path><path d="M421.37,210.82l-6.69,37.68s14.63,1.48,22.71,9.22a35.05,35.05,0,0,1,5.18,5.84l7.23-38.44S445.25,209.93,421.37,210.82Z" style="fill:#fff;opacity:0.8"></path><path d="M445,228.41a.23.23,0,0,1-.2-.11,20.39,20.39,0,0,0-17.41-9,.25.25,0,0,1-.26-.24.24.24,0,0,1,.24-.26H428A20.91,20.91,0,0,1,445.16,228a.24.24,0,0,1-.07.35A.23.23,0,0,1,445,228.41Z" style="fill:#263238"></path><path d="M443.2,233.73a.26.26,0,0,1-.21-.11,20.38,20.38,0,0,0-17.41-9,.26.26,0,0,1-.25-.25.24.24,0,0,1,.24-.25,20.92,20.92,0,0,1,17.84,9.2.26.26,0,0,1-.07.35A.23.23,0,0,1,443.2,233.73Z" style="fill:#263238"></path><path d="M442.45,239.56a.24.24,0,0,1-.21-.11,22.83,22.83,0,0,0-18.41-9.5.25.25,0,0,1,0-.5,23,23,0,0,1,18.85,9.73.24.24,0,0,1-.07.34A.23.23,0,0,1,442.45,239.56Z" style="fill:#263238"></path><path d="M441,245.05a.26.26,0,0,1-.21-.11c-3.55-5.41-11.36-9.48-17.82-9.28h0a.24.24,0,0,1-.25-.24.25.25,0,0,1,.24-.26h.5c6.49,0,14.2,4.1,17.75,9.51a.24.24,0,0,1-.07.34A.23.23,0,0,1,441,245.05Z" style="fill:#263238"></path><path d="M439.65,251a.26.26,0,0,1-.21-.11c-3.55-5.42-11.38-9.49-17.81-9.28h0a.26.26,0,0,1-.25-.24.25.25,0,0,1,.24-.26h.5c6.49,0,14.2,4.1,17.75,9.51a.25.25,0,0,1-.07.35A.23.23,0,0,1,439.65,251Z" style="fill:#263238"></path></g><g id="freepik--Book--inject-33"><path d="M177.73,123.7c-.35-.1-2.58,3.32-2.58,3.32l13,9.38,19.42-4.14,20.6-18.53-.55-3.77-4-2.28-1.77.81-.52-1.69a43.79,43.79,0,0,1-3.39,3.39c-1.63,1.4-14,5.17-15,13.29,0,0-3.76-2.88-8-1.88S182.09,124.88,177.73,123.7Z" style="fill:#263238"></path><path d="M177.73,123.7c-.35-.1-2.58,3.32-2.58,3.32l13,9.38,19.42-4.14,20.6-18.53-.55-3.77-4-2.28-1.77.81-.52-1.69a43.79,43.79,0,0,1-3.39,3.39c-1.63,1.4-14,5.17-15,13.29,0,0-3.76-2.88-8-1.88S182.09,124.88,177.73,123.7Z" style="fill:#fff;opacity:0.8"></path><path d="M172.43,126.74,187.55,158,210.41,157s1.93,1.71,5.38-1.25L235,142.39l-5.94-33.46-22.31,15.29a8,8,0,0,1-6.65,2Z" style="fill:#000000"></path><path d="M210.41,157,200.14,126.2a8,8,0,0,0,3.6-.23,9.85,9.85,0,0,0,3-1.75l9,31.49S212.75,158.47,210.41,157Z" style="opacity:0.30000000000000004"></path></g><g id="freepik--character-2--inject-33"><rect x="363.14" y="334.09" width="64.61" height="7.37" style="fill:#000000"></rect><rect x="397.87" y="335.73" width="29.88" height="4.26" style="fill:#fff;opacity:0.8"></rect><rect x="363.14" y="334.09" width="32.31" height="7.37" style="opacity:0.30000000000000004"></rect><path d="M322,371a338.36,338.36,0,0,0-5.76-46.35c-.74-3.69-4.69-6.2-8.95-5.74l-24.83,2.7c-4.13.27-8.34,1.65-10.94,4.46-4,4.29-3.21,10.47-2.24,15.91q2.85,16,5.69,32c.6,3.37,1.48,7.14,4.76,9,2.64,1.52,6.06,1.33,9.21,1.07q11.75-1,23.44-2.38c2.64-.31,5.48-.72,7.36-2.36C322.16,377.25,322.2,374,322,371Z" style="fill:#000000"></path><polygon points="334.3 308.26 341.11 307.33 350.95 383.78 344.13 384.72 334.3 308.26" style="fill:#263238"></polygon><polygon points="291.67 308.27 298.49 307.34 308.32 383.79 301.51 384.72 291.67 308.27" style="fill:#263238"></polygon><g style="opacity:0.30000000000000004"><polygon points="334.3 308.26 341.11 307.33 350.95 383.78 344.13 384.72 334.3 308.26" style="fill:#fff"></polygon></g><g style="opacity:0.4"><polygon points="291.67 308.27 298.49 307.34 308.32 383.79 301.51 384.72 291.67 308.27" style="fill:#fff"></polygon></g><path d="M348.22,339.17h-51.4a5.57,5.57,0,0,1-5.52-4.86l-3.65-28.5a4.3,4.3,0,0,1,3.74-4.81,4.55,4.55,0,0,1,.53,0h51.4a5.56,5.56,0,0,1,5.52,4.86l3.65,28.47a4.32,4.32,0,0,1-3.7,4.85A5.44,5.44,0,0,1,348.22,339.17Z" style="fill:#263238"></path><polygon points="342.57 456.35 352.16 456.35 353.34 405.67 353.83 384.26 340.91 384.26 341.4 405.67 342.57 456.35" style="fill:#263238"></polygon><polygon points="353.83 384.26 353.34 406.26 341.4 406.26 340.91 384.26 353.83 384.26" style="isolation:isolate;opacity:0.2"></polygon><polygon points="391.53 456.35 387.36 385.77 376.13 385.77 381.96 456.35 391.53 456.35" style="fill:#263238"></polygon><polygon points="381.95 456.35 391.52 456.35 387.98 396.22 387.36 385.63 376.13 385.63 377 396.22 381.95 456.35" style="fill:#fff;isolation:isolate;opacity:0.5"></polygon><polygon points="312.77 456.35 318.61 385.77 307.37 385.77 303.2 456.35 312.77 456.35" style="fill:#263238"></polygon><polygon points="312.78 456.35 317.73 396.22 318.6 385.63 307.37 385.63 306.75 396.22 303.21 456.35 312.78 456.35" style="fill:#fff;isolation:isolate;opacity:0.5"></polygon><polygon points="318.6 385.63 317.73 396.63 306.75 396.63 307.37 385.63 318.6 385.63" style="isolation:isolate;opacity:0.2"></polygon><path d="M301,381.75h92.81a4,4,0,0,1,4,4h0a4,4,0,0,1-4,4H301a4,4,0,0,1-4-4h0A4,4,0,0,1,301,381.75Z" style="fill:#263238"></path><path d="M301,381.75h92.81a4,4,0,0,1,4,4h0a4,4,0,0,1-4,4H301a4,4,0,0,1-4-4h0A4,4,0,0,1,301,381.75Z" style="fill:#fff;isolation:isolate;opacity:0.6000000000000001"></path><path d="M296.05,301l-10.21,62.49,4.9,10.48s10-48.19,11.69-57.56A63.92,63.92,0,0,0,303.55,301,18.2,18.2,0,0,0,296.05,301Z" style="fill:#000000"></path><polygon points="287.62 307.54 280.15 321.91 280.15 322.78 289.58 320.86 287.62 307.54" style="fill:#000000"></polygon><path d="M284.84,363.17h-.06a.26.26,0,0,1-.19-.31l2.7-11a.25.25,0,0,1,.49.12l-2.7,11A.24.24,0,0,1,284.84,363.17Z" style="fill:#263238;opacity:0.30000000000000004"></path><path d="M278.19,326.73a.22.22,0,0,1-.13,0,.24.24,0,0,1-.08-.34c1.35-2.2,3.88-8,3.91-8.09a.26.26,0,0,1,.33-.13.26.26,0,0,1,.13.33c-.11.24-2.57,5.92-4,8.15A.24.24,0,0,1,278.19,326.73Z" style="fill:#263238;opacity:0.30000000000000004"></path><path d="M277.67,363.17a.25.25,0,0,1-.24-.2c0-.18-3.37-17.81-5-32.39,0-.25-.2-5.61,2.61-7.31a.26.26,0,0,1,.35.08.26.26,0,0,1-.09.35c-2.56,1.55-2.37,6.79-2.37,6.84,1.64,14.54,5,32.16,5,32.34a.25.25,0,0,1-.2.29Z" style="fill:#263238;opacity:0.30000000000000004"></path><path d="M317,293.53l-26.53-17.28-15.58-27.67L267.25,254s9.21,28.77,15.53,34.63,28.63,20.16,28.63,20.16Z" style="fill:#b97964"></path><path d="M275,251.22s2.28-2.71,2-5.62.27-5.32-.09-7.47-2.25-1.08-2.8.43-.81,4.64-1.88,4-6.46-9.55-8-10.2-1.15,1.07-1.15,1.07-1.23-2-2.37-1.83-.74,1.66-.74,1.66-.87-1.32-1.73-.6,3.28,9.25,3.23,9.69c0,0-1.79-5.44-3.23-5.48s-.6,3,0,5.49a17.45,17.45,0,0,0,4,7c2.2,2.38,4.65,6.16,7.54,5.35A12.26,12.26,0,0,0,275,251.22Z" style="fill:#b97964"></path><g style="opacity:0.2"><path d="M259.94,233.71c1.38,2.3,2.69,4.63,3.9,7a15.43,15.43,0,0,0-1.75,1.14c-.27.22.15.55.43.35a14.86,14.86,0,0,1,5.87-2.67c.36-.07.18-.54-.17-.46a15.42,15.42,0,0,0-1.59.44.23.23,0,0,0,0-.14,26.45,26.45,0,0,0-3.13-5.47c-.2-.25-.68,0-.48.27a25.23,25.23,0,0,1,3.06,5.34c0,.07-.36.81-.29.83-.66.23-.85-.19-1.46.12-1.22-2.37-2.51-4.7-3.91-7C260.24,233.18,259.77,233.43,259.94,233.71Z"></path></g><g style="opacity:0.2"><path d="M269.25,251a6.35,6.35,0,0,1,2.79-7.3c.28-.16,0-.65-.3-.49-2.65,1.52-3.78,4.55-3,7.89A.25.25,0,1,0,269.25,251Z"></path></g><path d="M261.32,242.71a.25.25,0,0,1-.24-.17,29.43,29.43,0,0,0-2.11-4.76.24.24,0,0,1,.09-.34.26.26,0,0,1,.35.09,31.18,31.18,0,0,1,2.15,4.86.25.25,0,0,1-.16.31Z" style="opacity:0.2"></path><path d="M349.26,288.62l20.84-22.55,8.76-28.9,9.93,1.67s-4.11,30.44-8.74,37.71S360,304.19,360,304.19Z" style="fill:#b97964"></path><path d="M380.14,240.18s-3.28-1.35-4.37-4.06-2.7-4.6-3.37-6.67,1.5-2,2.68-.91,2.86,3.74,3.53,2.72,1.33-11.45,2.41-12.76,1.52.42,1.52.42.16-2.34,1.25-2.71,1.43,1.12,1.43,1.12.16-1.56,1.26-1.32,1.35,9.72,1.59,10.08c0,0-.92-5.64.34-6.35s1.94,2.41,2.53,4.88a17.31,17.31,0,0,1-.35,8.08c-.85,3.12-1.29,7.61-4.22,8.23A12.23,12.23,0,0,1,380.14,240.18Z" style="fill:#b97964"></path><g style="opacity:0.2"><path d="M385.44,217.69c-.17,2.67-.26,5.35-.24,8a14.5,14.5,0,0,1,2.08.2c.34.07.12.56-.22.51a14.87,14.87,0,0,0-6.44.35c-.35.09-.41-.4-.06-.49a13.82,13.82,0,0,1,1.62-.35.16.16,0,0,1-.06-.13,26.11,26.11,0,0,1,.25-6.29c.06-.32.6-.33.55,0a25.47,25.47,0,0,0-.25,6.15c0,.08.69.56.64.61.69-.1.67-.57,1.35-.58,0-2.65.06-5.32.24-8C384.92,217.36,385.46,217.36,385.44,217.69Z"></path></g><g style="opacity:0.2"><path d="M385.14,237.31a6.35,6.35,0,0,0-5.84-5.2c-.32,0-.29-.58,0-.57,3.06.13,5.46,2.3,6.29,5.63A.25.25,0,1,1,385.14,237.31Z"></path></g><path d="M388.24,226.34a.24.24,0,0,1-.24-.21,30.12,30.12,0,0,1-.33-5.3.24.24,0,0,1,.26-.24.25.25,0,0,1,.24.26,30,30,0,0,0,.32,5.2.25.25,0,0,1-.21.29Z" style="opacity:0.2"></path><path d="M346.86,288.05l16-15,15.29,11.49s-17,21.3-20.3,24.63S346.86,288.05,346.86,288.05Z" style="fill:#000000"></path><path d="M346.86,288.05l16-15,15.29,11.49s-17,21.3-20.3,24.63S346.86,288.05,346.86,288.05Z" style="fill:#fff;opacity:0.4"></path><path d="M305.9,356.61c1.14-5.08.87-13.38.87-13.38,0-18.54.71-41.47,1.4-47.88.27-2.52-.86-6,5.65-7.86s18-1.76,35.07-1.27c0,0,4,7.17,8.93,20.77,0,0,1.52,14.24,2.56,23.45l2.76,20.86C359.45,357,339.36,361.4,305.9,356.61Z" style="fill:#000000"></path><path d="M305.9,356.61c1.14-5.08.87-13.38.87-13.38,0-18.54.71-41.47,1.4-47.88.27-2.52-.86-6,5.65-7.86s18-1.76,35.07-1.27c0,0,4,7.17,8.93,20.77,0,0,1.52,14.24,2.56,23.45l2.76,20.86C359.45,357,339.36,361.4,305.9,356.61Z" style="fill:#fff;opacity:0.4"></path><path d="M319,290.35l-19.23-10.44-8.22,17.9s16.68,13.17,20.71,15.55S319,290.35,319,290.35Z" style="fill:#000000"></path><path d="M319,290.35l-19.23-10.44-8.22,17.9s16.68,13.17,20.71,15.55S319,290.35,319,290.35Z" style="fill:#fff;opacity:0.4"></path><path d="M319.4,295.06a.25.25,0,0,1-.24-.18,12.05,12.05,0,0,0-4.59-7,.25.25,0,0,1-.07-.34.25.25,0,0,1,.35-.07,12.52,12.52,0,0,1,4.79,7.29.24.24,0,0,1-.17.3Z" style="opacity:0.2"></path><path d="M358.37,308.83a.24.24,0,0,1-.24-.2L354.27,292a.26.26,0,0,1,.19-.3.25.25,0,0,1,.3.19l3.85,16.66a.25.25,0,0,1-.18.3Z" style="opacity:0.2"></path><g style="opacity:0.4"><path d="M348.28,318.92a7.53,7.53,0,0,0,4-8.09A6.5,6.5,0,0,0,345,306c-2.81.57-4.82,4.64-4.88,8-.66-3.07-4.68-6.58-7.56-6.54A6.23,6.23,0,0,0,326.7,314a6.47,6.47,0,0,0,6.86,5.6,5.83,5.83,0,1,0,6.79,4c1,2.61,2.94,5.08,5.63,5.86s6.11-.75,6.56-3.52S350.53,320.71,348.28,318.92Z" style="fill:#fff"></path></g><circle cx="340.77" cy="318.46" r="2.89" style="fill:#fff"></circle><path d="M365.42,266.07a.45.45,0,0,1-.16,0,24.48,24.48,0,0,1-12.44-12.83.37.37,0,0,1,.2-.49.37.37,0,0,1,.49.2,23.72,23.72,0,0,0,12.06,12.44.37.37,0,0,1-.15.71Z" style="fill:#263238"></path><path d="M353.16,251.66,341.8,279.07A22.4,22.4,0,0,0,361.5,270,37.12,37.12,0,0,1,353.16,251.66Z" style="fill:#263238"></path><path d="M314.9,228.07a8.15,8.15,0,0,0-8,1.13,11.31,11.31,0,0,0-4.15,7.17c-.4,2.35-.07,5.06,1.73,6.61a5.83,5.83,0,0,0,5.91.69,11,11,0,0,0,4.64-4.06l3.63-4.65A6.42,6.42,0,0,0,314.9,228.07Z" style="fill:#263238"></path><path d="M319.52,236a3.6,3.6,0,0,0-3.58-1.52,5.16,5.16,0,0,0-3.33,2.25,5.86,5.86,0,0,0-.74,5.24,2,2,0,0,0,1.92,1.24,5.65,5.65,0,0,0,4.93-2.14,7.86,7.86,0,0,0,.68-1A4.15,4.15,0,0,0,319.52,236Z" style="fill:#000000"></path><path d="M325.2,269.84c1.2,3.5.77,3.13.55,6.82-.23,4-.55,9.4-.55,9.4.46.92,4.79,3.92,8.57,5.24,6.33,2.21,8.62.62,7.94-4.72a8.4,8.4,0,0,1,3.9-8.74C352.48,273.21,325.2,269.84,325.2,269.84Z" style="fill:#b97964"></path><path d="M325.2,269.84c1.2,3.5,1.57,4.11,2.06,7.78,3.16,5.71,8.9,7.32,14.37,8.06-.08-2.25.64-6.23,3.95-7.9C352.48,273.21,325.2,269.84,325.2,269.84Z" style="isolation:isolate;opacity:0.2"></path><path d="M347.16,237s7.48,5.09,5.41,13.94-15.44-7.58-15.44-7.58Z" style="fill:#263238"></path><path d="M315.23,258.08c4.63,11.16,6.69,17.94,15.13,21.58,12.7,5.53,26.8-5,26-17.44-.64-11.19-8.12-27.52-22.21-27.84S310.62,247,315.23,258.08Z" style="fill:#b97964"></path><path d="M337.17,249.36a.76.76,0,0,0,.08-.42.72.72,0,0,0-.87-.52,6.91,6.91,0,0,0-5,4.13.7.7,0,0,0,.42.89h0a.73.73,0,0,0,.91-.43h0a5.56,5.56,0,0,1,4-3.22A.77.77,0,0,0,337.17,249.36Z" style="fill:#263238"></path><path d="M351.48,245.09a.84.84,0,0,0,.32-.3.72.72,0,0,0-.39-.93,7,7,0,0,0-6.45.41.7.7,0,0,0-.21,1l0,0h0a.74.74,0,0,0,1,.19h0a5.57,5.57,0,0,1,5.16-.23A.72.72,0,0,0,351.48,245.09Z" style="fill:#263238"></path><path d="M346.2,257.33l4.08,1.77s-.53,1.61-3.69,2.8Z" style="fill:#a24e3f"></path><path d="M337.93,238.13s-7.08-6.36-9.76-5.85-10.95,3.26-15.36,11.36-4.69,23.81-4.66,26.32c.07,5.94-.21,13.78-.21,13.78l18.61-.12c2.55-5.25-1.72-19.44.27-21.41,5.34-5.29,7.43-11,9-14,1.73-3.34,2.23-9.42,2.23-9.42l9,1.45,4.35,3.64a61.3,61.3,0,0,0-3.9-6.91c-2.44-3.76-12.19-6-16-5.32s-3.19,2-3.19,2Z" style="fill:#263238"></path><path d="M327.27,262.78s-4.32-5.88-7.22-3,.29,13.58,5.3,12.42S330.35,265.76,327.27,262.78Z" style="fill:#b97964"></path><path d="M348.62,265.51a12,12,0,0,1-1.05,4.94h-.89c-4,.07-5.92-1.24-6.8-2.72a5.66,5.66,0,0,1-.59-3.79c2.17,1.25,5.9,1.49,8,1.53A11.72,11.72,0,0,0,348.62,265.51Z" style="fill:#263238"></path><path d="M347.23,265.51l-.35,1.46c-3.8,0-6.49-.44-7.7-1.57a5.21,5.21,0,0,1,.11-1.42C341.44,265.23,345.17,265.47,347.23,265.51Z" style="fill:#fff"></path><path d="M346.68,270.49c-4,.07-5.92-1.24-6.8-2.72a13,13,0,0,1,4.5.83A4.9,4.9,0,0,1,346.68,270.49Z" style="fill:#c05854"></path><path d="M324.49,269.25a.26.26,0,0,1-.15,0c-1.87-1.4-3.11-4.22-1.86-6.33a.24.24,0,0,1,.34-.08.25.25,0,0,1,.09.34c-1.07,1.81,0,4.39,1.73,5.66a.27.27,0,0,1,.05.36A.25.25,0,0,1,324.49,269.25Z" style="opacity:0.2"></path><path d="M334.55,258.57c.22,1.18,1,2,1.81,1.87s1.19-1.24,1-2.41-1-2-1.82-1.88S334.36,257.39,334.55,258.57Z" style="fill:#263238"></path><path d="M346.84,254.75c.23,1.19,1.05,2,1.82,1.88s1.18-1.25,1-2.43-1-2-1.82-1.87S346.64,253.57,346.84,254.75Z" style="fill:#263238"></path><path d="M306.21,283.22a.37.37,0,0,1-.38-.35c-.55-11.93,2.91-30.22,6.26-38a.37.37,0,0,1,.49-.19.37.37,0,0,1,.2.49c-3.32,7.7-6.75,25.82-6.2,37.65a.37.37,0,0,1-.35.39Z" style="fill:#263238"></path><g id="freepik--freepik--Character--inject-6--inject-33"><path d="M363.74,375.36l17.05,9.07s-4.6,12.62-5.49,18.52c-1.86,12.33-1.09,44.52-1.09,44.52l8.73.42s15.61-52.42,17.68-60.07c2-7.43,3.45-12.95,0-17.53s-25.09-11.43-25.09-11.43Z" style="fill:#b97964"></path><path d="M375.47,384.15c-7.14-1-21.73-3.38-32.9-3.95l-13-.64C300.64,378,358,351.64,358,351.64s19.17,5.43,34.3,11.48C384.48,370.68,381.35,378,375.47,384.15Z" style="fill:#000000"></path><path d="M307.9,352.07s.55,7.09.42,14.89c-.17,10.8,2.23,16.89,21.41,16.89,35.11,0,31.85-18.9,28.88-35.56Z" style="fill:#000000"></path><path d="M350,356.16l7.49-3.51.35,4.47S372,366,377.12,370.94s.41,11,.41,11l-4.64,6-19.71-6.52Z" style="isolation:isolate;opacity:0.2"></path><path d="M337.83,382.21l17.88,7.93s-4.7,14-5.34,19.92c-1,9.09-2.45,41.58-2.45,41.58l9.19-2.33s16.36-48.14,18.42-55.78c2-7.43,3.45-12.95,0-17.54s-22.66-14.82-22.66-14.82Z" style="fill:#b97964"></path><path d="M350.22,388.17c-10.82-1.75-21-2-31.38-5.39-2.77-.91-9.37-14.74-8.69-19.45,2.36-16.54,36.3-10,36.3-10s15.52,11.56,22.82,16Z" style="fill:#000000"></path></g><path d="M384.19,444.4h-2.92a2,2,0,0,0-1.67,1.09c-1.68,2.91-3,1.81-4.79-.92-1.16-.17-1.48,1.51-1.57,2l-2.19,10a1.68,1.68,0,0,0,.86,1.95,1.13,1.13,0,0,0,.36.06h23.18c3.69,0,4.76-4.53,2.31-5.3-6.83-1.9-11-4.25-13.15-6.76C384.22,446.08,384.62,445.76,384.19,444.4Z" style="fill:#263238"></path><path d="M390.54,447.25A1.68,1.68,0,0,0,391,446a.79.79,0,0,0-.24-.65c-.92-.81-4.57,1.34-5,1.59a.18.18,0,0,0-.09.13.23.23,0,0,0,.09.26,10.32,10.32,0,0,0,2.75.44A2.69,2.69,0,0,0,390.54,447.25Zm0-1.51a.31.31,0,0,1,.1.28,1.32,1.32,0,0,1-.37.88c-.83.78-2.83.45-3.91.19C387.91,446.25,390.06,445.3,390.57,445.74Z" style="fill:#000000"></path><path d="M385.94,447.42c1.1-.58,3.4-2.86,3.27-4.06,0-.25-.16-.55-.65-.64-2-.29-2.87,4.25-2.87,4.44a.24.24,0,0,0,.05.22.11.11,0,0,0,.11,0Zm2.55-4.32c.37,0,.37.21.37.27.11.74-1.56,2.63-2.76,3.42.25-1.06,1-3.71,2.26-3.71Z" style="fill:#000000"></path><path d="M383.74,449.51a.2.2,0,0,1-.11,0,.24.24,0,0,1-.11-.33,3.8,3.8,0,0,1,2.66-2.15.24.24,0,0,1,.29.2.25.25,0,0,1-.2.29,3.32,3.32,0,0,0-2.31,1.88A.24.24,0,0,1,383.74,449.51Z" style="fill:#000000"></path><path d="M385.56,451.24a.2.2,0,0,1-.11,0,.25.25,0,0,1-.12-.34,3.84,3.84,0,0,1,2.67-2.15.25.25,0,1,1,.08.49,3.36,3.36,0,0,0-2.3,1.89A.26.26,0,0,1,385.56,451.24Z" style="fill:#000000"></path><path d="M387.82,452.69a.2.2,0,0,1-.11,0,.24.24,0,0,1-.11-.33,3.84,3.84,0,0,1,2.66-2.16.25.25,0,0,1,.29.21.26.26,0,0,1-.2.29,3.32,3.32,0,0,0-2.31,1.88A.24.24,0,0,1,387.82,452.69Z" style="fill:#000000"></path><path d="M358.73,444.4H355.8a2,2,0,0,0-1.66,1.09c-1.69,2.91-3,1.81-4.79-.92-1.17-.17-1.48,1.51-1.58,2l-2.19,10a1.68,1.68,0,0,0,.86,1.95,1.15,1.15,0,0,0,.37.06H370c3.69,0,4.76-4.53,2.31-5.3-6.83-1.9-11-4.25-13.15-6.76C358.75,446.08,359.15,445.76,358.73,444.4Z" style="fill:#263238"></path><path d="M365.08,447.25a1.67,1.67,0,0,0,.49-1.21.76.76,0,0,0-.24-.65c-.91-.81-4.57,1.34-5,1.59a.19.19,0,0,0-.1.13.22.22,0,0,0,.1.26,10.31,10.31,0,0,0,2.74.44A2.72,2.72,0,0,0,365.08,447.25Zm0-1.51a.29.29,0,0,1,.1.28,1.36,1.36,0,0,1-.36.88c-.83.78-2.84.45-3.92.19C362.44,446.25,364.6,445.3,365.1,445.74Z" style="fill:#000000"></path><path d="M360.47,447.42c1.1-.58,3.4-2.86,3.28-4.06a.69.69,0,0,0-.66-.64c-2-.29-2.87,4.25-2.87,4.44a.24.24,0,0,0,0,.22.13.13,0,0,0,.12,0ZM363,443.1c.37,0,.37.21.37.27.11.74-1.56,2.63-2.76,3.42.25-1.06,1-3.71,2.26-3.71Z" style="fill:#000000"></path><path d="M358.27,449.51l-.11,0a.25.25,0,0,1-.11-.33,3.81,3.81,0,0,1,2.67-2.15.25.25,0,0,1,.08.49,3.32,3.32,0,0,0-2.3,1.88A.25.25,0,0,1,358.27,449.51Z" style="fill:#000000"></path><path d="M360.09,451.24a.23.23,0,0,1-.11,0,.26.26,0,0,1-.11-.34,3.82,3.82,0,0,1,2.66-2.15.24.24,0,0,1,.29.21.24.24,0,0,1-.2.28,3.34,3.34,0,0,0-2.3,1.89A.29.29,0,0,1,360.09,451.24Z" style="fill:#000000"></path><path d="M362.35,452.69l-.11,0a.25.25,0,0,1-.11-.33,3.86,3.86,0,0,1,2.66-2.16.25.25,0,0,1,.09.5,3.32,3.32,0,0,0-2.3,1.88A.25.25,0,0,1,362.35,452.69Z" style="fill:#000000"></path><polygon points="327.87 459.12 323.57 459.12 321.7 348.29 329.74 348.29 327.87 459.12" style="fill:#263238"></polygon><polygon points="460.1 458.06 455.82 458.06 453.93 350.44 461.98 350.44 460.1 458.06" style="fill:#263238"></polygon><polygon points="412.78 458.06 408.49 458.06 406.62 350.44 414.66 350.44 412.78 458.06" style="fill:#263238"></polygon><rect x="319.91" y="341.56" width="145.7" height="8.88" style="fill:#263238"></rect><polygon points="460.1 458.06 455.82 458.06 453.93 350.44 461.98 350.44 460.1 458.06" style="fill:#fff;isolation:isolate;opacity:0.30000000000000004"></polygon><polygon points="412.78 458.06 408.49 458.06 406.62 350.44 414.66 350.44 412.78 458.06" style="fill:#fff;isolation:isolate;opacity:0.30000000000000004"></polygon><rect x="325.72" y="348.29" width="136.09" height="19.55" style="fill:#263238"></rect><rect x="407.1" y="350.44" width="54.72" height="17.4" style="fill:#fff;isolation:isolate;opacity:0.30000000000000004"></rect><polygon points="321.74 350.44 321.83 355.87 461.81 355.87 461.81 350.44 321.74 350.44" style="isolation:isolate;opacity:0.2"></polygon><rect x="367.63" y="326.6" width="64.61" height="7.37" style="fill:#263238"></rect><path d="M432.24,332.5H404.49a2.13,2.13,0,0,1-2.13-2.13h0a2.12,2.12,0,0,1,2.13-2.12h27.75Z" style="fill:#fff;opacity:0.8"></path><rect x="367.63" y="326.6" width="32.31" height="7.37" style="opacity:0.30000000000000004"></rect></g><g id="freepik--character-1--inject-33"><path d="M145.32,288.62l20.84-22.55,8.76-28.9,9.93,1.67s-4.11,30.44-8.74,37.71S156,304.19,156,304.19Z" style="fill:#e9b376"></path><path d="M176.19,240.18s-3.28-1.35-4.37-4.06a17.75,17.75,0,0,1-1.15-4.58c-.31-2.86.9-4.32,2.07-3.24s1.26,4,1.93,3,1.32-11.45,2.41-12.76,1.51.42,1.51.42.17-2.34,1.26-2.71,1.42,1.12,1.42,1.12.17-1.56,1.26-1.32,1.36,9.72,1.6,10.08c0,0-.92-5.64.34-6.35s1.93,2.41,2.52,4.88a17.43,17.43,0,0,1-.34,8.08c-.86,3.12-1.29,7.61-4.23,8.23A12.26,12.26,0,0,1,176.19,240.18Z" style="fill:#e9b376"></path><g style="opacity:0.2"><path d="M181.49,217.69c-.17,2.67-.25,5.35-.23,8a14.64,14.64,0,0,1,2.08.2c.34.07.11.56-.22.51a14.91,14.91,0,0,0-6.45.35c-.35.09-.4-.4,0-.49a13.24,13.24,0,0,1,1.61-.35.15.15,0,0,1,0-.13,25.61,25.61,0,0,1,.25-6.29c0-.32.6-.33.55,0a25.47,25.47,0,0,0-.25,6.15c0,.08.68.56.63.61.7-.1.67-.57,1.36-.58q0-4,.23-8C181,217.36,181.51,217.36,181.49,217.69Z"></path></g><g style="opacity:0.2"><path d="M181.19,237.31a6.35,6.35,0,0,0-5.84-5.2c-.32,0-.28-.58,0-.57,3.05.13,5.46,2.3,6.28,5.63A.25.25,0,1,1,181.19,237.31Z"></path></g><path d="M184.3,226.34a.25.25,0,0,1-.25-.21,32.17,32.17,0,0,1-.33-5.3.26.26,0,0,1,.26-.24.25.25,0,0,1,.24.26,31,31,0,0,0,.33,5.2.25.25,0,0,1-.21.29Z" style="opacity:0.2"></path><path d="M212.39,221.74l6.55,6.29s-15.7-2-22.08,17.14l-35.28-23,7.24-13L186.55,205Z" style="fill:#263238"></path><path d="M212.39,221.74l6.55,6.29s-15.7-2-22.08,17.14l-35.28-23,7.24-13L186.55,205Z" style="fill:#fff;isolation:isolate;opacity:0.7000000000000001"></path><path d="M159.64,220.84l32.46,20.25s6.83-13,17-17.62a34.73,34.73,0,0,1,7.35-2.63l-33-21S167.71,198.35,159.64,220.84Z" style="fill:#263238"></path><path d="M159.64,220.84l32.46,20.25s6.83-13,17-17.62a34.73,34.73,0,0,1,7.35-2.63l-33-21S167.71,198.35,159.64,220.84Z" style="fill:#fff;opacity:0.9"></path><path d="M169.51,218.63h-.08a.26.26,0,0,1-.16-.32,20.9,20.9,0,0,1,15.2-13.12.25.25,0,0,1,.3.19.26.26,0,0,1-.2.3,20.33,20.33,0,0,0-14.82,12.8A.26.26,0,0,1,169.51,218.63Z" style="fill:#263238"></path><path d="M173.79,222.24h-.08a.26.26,0,0,1-.16-.32,20.9,20.9,0,0,1,15.2-13.12.25.25,0,1,1,.1.49A20.33,20.33,0,0,0,174,222.08.26.26,0,0,1,173.79,222.24Z" style="fill:#263238"></path><path d="M178.07,225.85H178a.26.26,0,0,1-.15-.32,23,23,0,0,1,16.06-13.86.25.25,0,0,1,.29.19.25.25,0,0,1-.19.3,22.84,22.84,0,0,0-15.69,13.54A.24.24,0,0,1,178.07,225.85Z" style="fill:#263238"></path><path d="M183.06,228.75l-.08,0a.24.24,0,0,1-.15-.32c2.25-6.19,9.11-12.07,15.62-13.39a.25.25,0,0,1,.29.2.24.24,0,0,1-.19.29c-6.35,1.28-13.05,7-15.25,13.07A.25.25,0,0,1,183.06,228.75Z" style="fill:#263238"></path><path d="M188,232.23l-.09,0a.26.26,0,0,1-.15-.32c2.26-6.2,9.12-12.08,15.63-13.39a.25.25,0,0,1,.09.49c-6.35,1.28-13.05,7-15.25,13.07A.25.25,0,0,1,188,232.23Z" style="fill:#263238"></path><path d="M171.45,234.52c0-.36-1.6-4.89-.91-6s6.54-2.76,6.21-1.43a9.19,9.19,0,0,1-1.82,3s3.56,1.5,3.48,4.81-4.46,3.91-4.46,3.91Z" style="fill:#e9b376"></path><path d="M112.36,372.05a338.36,338.36,0,0,0-5.76-46.35c-.74-3.69-4.69-6.2-8.95-5.74l-24.83,2.7c-4.13.27-8.34,1.65-10.94,4.46-4,4.29-3.21,10.47-2.24,15.91q2.85,16,5.69,32c.6,3.38,1.48,7.15,4.76,9,2.64,1.51,6.06,1.33,9.21,1.06q11.74-1,23.44-2.37c2.64-.32,5.48-.73,7.36-2.37C112.48,378.28,112.52,375,112.36,372.05Z" style="fill:#000000"></path><path d="M107.17,330.65a5.6,5.6,0,0,0-5.53-5l-21.3-.06a5.14,5.14,0,0,0-.88.07l-1,.15a5.59,5.59,0,0,0-4.63,6.58l9.58,49c3.83,3.3,25.86.91,27.38-3C112,375.32,108.58,343.16,107.17,330.65Z" style="isolation:isolate;opacity:0.2"></path><polygon points="124.62 309.3 131.43 308.36 141.27 384.82 134.45 385.75 124.62 309.3" style="fill:#263238"></polygon><polygon points="81.99 309.3 88.81 308.37 98.64 384.82 91.83 385.75 81.99 309.3" style="fill:#263238"></polygon><g style="opacity:0.30000000000000004"><polygon points="124.62 309.3 131.43 308.36 141.27 384.82 134.45 385.75 124.62 309.3" style="fill:#fff"></polygon></g><g style="opacity:0.4"><polygon points="81.99 309.3 88.81 308.37 98.64 384.82 91.83 385.75 81.99 309.3" style="fill:#fff"></polygon></g><path d="M138.54,340.21H87.14a5.58,5.58,0,0,1-5.52-4.86L78,306.85A4.31,4.31,0,0,1,81.71,302a4.58,4.58,0,0,1,.53,0h51.4a5.55,5.55,0,0,1,5.52,4.86l3.65,28.47a4.32,4.32,0,0,1-3.7,4.84A5.46,5.46,0,0,1,138.54,340.21Z" style="fill:#263238"></path><path d="M138.54,340.21H87.14a5.58,5.58,0,0,1-5.52-4.86L78,306.85A4.31,4.31,0,0,1,81.71,302a4.58,4.58,0,0,1,.53,0h51.4a5.55,5.55,0,0,1,5.52,4.86l3.65,28.47a4.32,4.32,0,0,1-3.7,4.84A5.46,5.46,0,0,1,138.54,340.21Z" style="fill:#fff;isolation:isolate;opacity:0.6000000000000001"></path><polygon points="132.89 457.38 142.48 457.38 143.66 406.7 144.15 385.3 131.23 385.3 131.72 406.7 132.89 457.38" style="fill:#263238"></polygon><polygon points="132.89 457.38 142.48 457.38 143.66 406.7 144.15 385.3 131.23 385.3 131.72 406.7 132.89 457.38" style="fill:#fff;isolation:isolate;opacity:0.4"></polygon><polygon points="144.15 385.3 143.66 407.3 131.72 407.3 131.23 385.3 144.15 385.3" style="isolation:isolate;opacity:0.2"></polygon><polygon points="181.85 457.38 177.68 386.81 166.45 386.81 172.28 457.38 181.85 457.38" style="fill:#263238"></polygon><polygon points="172.27 457.38 181.84 457.38 178.3 397.25 177.68 386.67 166.45 386.67 167.32 397.25 172.27 457.38" style="fill:#fff;isolation:isolate;opacity:0.5"></polygon><polygon points="103.09 457.38 108.93 386.81 97.69 386.81 93.52 457.38 103.09 457.38" style="fill:#263238"></polygon><polygon points="103.1 457.38 108.05 397.25 108.92 386.67 97.69 386.67 97.07 397.25 93.53 457.38 103.1 457.38" style="fill:#fff;isolation:isolate;opacity:0.5"></polygon><polygon points="108.92 386.67 108.05 397.67 97.07 397.67 97.69 386.67 108.92 386.67" style="isolation:isolate;opacity:0.2"></polygon><path d="M91.28,382.78h92.81a4,4,0,0,1,4,4h0a4,4,0,0,1-4,4H91.28a4,4,0,0,1-4-4h0A4,4,0,0,1,91.28,382.78Z" style="fill:#263238"></path><path d="M91.28,382.78h92.81a4,4,0,0,1,4,4h0a4,4,0,0,1-4,4H91.28a4,4,0,0,1-4-4h0A4,4,0,0,1,91.28,382.78Z" style="fill:#fff;isolation:isolate;opacity:0.6000000000000001"></path><path d="M86.37,302,76.16,364.48,81.06,375s10-48.2,11.69-57.57A63.85,63.85,0,0,0,93.87,302,18,18,0,0,0,86.37,302Z" style="fill:#000000"></path><polygon points="77.94 308.58 70.47 322.94 70.47 323.81 79.9 321.89 77.94 308.58" style="fill:#000000"></polygon><path d="M75.16,364.2H75.1a.25.25,0,0,1-.18-.31l2.7-11a.25.25,0,0,1,.3-.18.25.25,0,0,1,.18.3l-2.7,11A.24.24,0,0,1,75.16,364.2Z" style="fill:#263238;opacity:0.30000000000000004"></path><path d="M68.51,327.76a.22.22,0,0,1-.13,0,.24.24,0,0,1-.08-.34c1.35-2.2,3.88-8,3.91-8.09a.26.26,0,0,1,.33-.13.27.27,0,0,1,.13.33c-.11.24-2.57,5.92-4,8.15A.24.24,0,0,1,68.51,327.76Z" style="fill:#263238;opacity:0.30000000000000004"></path><path d="M68,364.2a.25.25,0,0,1-.24-.2c0-.18-3.37-17.81-5-32.39,0-.24-.2-5.61,2.61-7.31a.25.25,0,1,1,.26.43c-2.56,1.55-2.37,6.79-2.37,6.84,1.64,14.54,5,32.16,5,32.34a.25.25,0,0,1-.2.29Z" style="fill:#263238;opacity:0.30000000000000004"></path><polygon points="156.19 387.97 157.05 398.97 168.04 398.97 167.42 387.97 156.19 387.97" style="isolation:isolate;opacity:0.2"></polygon><path d="M159.79,375.31l17.06,9.07s-4.6,12.61-5.49,18.52c-1.86,12.33-1.09,44.52-1.09,44.52l8.73.41s15.61-52.41,17.67-60.06c2-7.43,3.45-12.95,0-17.53s-25.08-11.44-25.08-11.44Z" style="fill:#e9b376"></path><path d="M171.53,384.09c-7.14-1-21.73-3.38-32.9-3.95l-13-.64C96.7,378,154.1,351.59,154.1,351.59s19.17,5.43,34.3,11.48C180.54,370.63,177.41,377.91,171.53,384.09Z" style="fill:#000000"></path><path d="M104,352s-1.77,4-1.89,11.83c-.17,10.81,4.54,19.95,23.72,19.95,35.11,0,31.84-18.9,28.87-35.56Z" style="fill:#000000"></path><path d="M146,356.11l7.49-3.52.34,4.47S168,366,173.18,370.89s.41,11,.41,11l-4.64,6-19.71-6.53Z" style="isolation:isolate;opacity:0.2"></path><path d="M133.89,382.16l17.87,7.92s-4.7,14-5.34,19.93c-1,9.09-2.45,41.58-2.45,41.58l9.2-2.33s16.35-48.14,18.42-55.79c2-7.43,3.45-12.94,0-17.53s-22.66-14.82-22.66-14.82Z" style="fill:#e9b376"></path><path d="M146.27,388.11c-10.81-1.74-20.94-2-31.38-5.38-2.77-.91-9.36-14.75-8.68-19.46,2.36-16.54,36.29-10,36.29-10s15.52,11.57,22.83,16Z" style="fill:#000000"></path><polygon points="170.23 445.63 170.11 432.18 183.65 432.18 179.27 447.24 174.4 450.42 170.23 445.63" style="fill:#000000"></polygon><polygon points="170.23 445.63 170.11 432.18 183.65 432.18 179.27 447.24 174.4 450.42 170.23 445.63" style="fill:#fff;opacity:0.7000000000000001"></polygon><path d="M179.69,444.4h-2.92a2,2,0,0,0-1.67,1.09c-1.69,2.91-2.95,1.81-4.79-.92-1.17-.17-1.48,1.51-1.58,2l-2.18,10a1.66,1.66,0,0,0,.86,1.95,1.09,1.09,0,0,0,.36.06H191c3.68,0,4.75-4.53,2.3-5.3-6.83-1.9-11-4.25-13.14-6.76C179.71,446.08,180.12,445.76,179.69,444.4Z" style="fill:#000000"></path><path d="M194.22,456.64H166.54a1.65,1.65,0,0,0,.87,1.88,1.09,1.09,0,0,0,.36.06H191A3.54,3.54,0,0,0,194.22,456.64Z" style="fill:#fff;opacity:0.7000000000000001"></path><path d="M186,447.25a1.63,1.63,0,0,0,.49-1.21.76.76,0,0,0-.23-.65c-.92-.81-4.58,1.34-5,1.59a.23.23,0,0,0-.1.13.23.23,0,0,0,.1.26,10.31,10.31,0,0,0,2.74.44A2.72,2.72,0,0,0,186,447.25Zm0-1.51a.3.3,0,0,1,.09.28,1.26,1.26,0,0,1-.36.88c-.83.78-2.84.45-3.92.19C183.4,446.25,185.56,445.3,186.07,445.74Z" style="fill:#263238"></path><path d="M181.44,447.42c1.09-.58,3.4-2.86,3.27-4.06a.69.69,0,0,0-.66-.64c-2-.29-2.86,4.25-2.86,4.44a.27.27,0,0,0,0,.22.13.13,0,0,0,.12,0ZM184,443.1c.37,0,.37.21.37.27.1.74-1.57,2.63-2.76,3.42.25-1.06,1-3.71,2.25-3.71Z" style="fill:#263238"></path><path d="M179.24,449.51l-.12,0a.25.25,0,0,1-.11-.33,3.81,3.81,0,0,1,2.67-2.15.24.24,0,0,1,.29.2.25.25,0,0,1-.21.29,3.32,3.32,0,0,0-2.3,1.88A.24.24,0,0,1,179.24,449.51Z" style="fill:#263238"></path><path d="M181.06,451.24a.27.27,0,0,1-.12,0,.26.26,0,0,1-.11-.34,3.84,3.84,0,0,1,2.67-2.15.25.25,0,0,1,.29.21.25.25,0,0,1-.21.28,3.36,3.36,0,0,0-2.3,1.89A.27.27,0,0,1,181.06,451.24Z" style="fill:#263238"></path><path d="M183.32,452.69a.2.2,0,0,1-.11,0,.24.24,0,0,1-.12-.33,3.85,3.85,0,0,1,2.67-2.16.25.25,0,0,1,.08.5,3.32,3.32,0,0,0-2.3,1.88A.24.24,0,0,1,183.32,452.69Z" style="fill:#263238"></path><path d="M167.44,452.47s-1.18,3.45-1,4.34a4.49,4.49,0,0,0,.87,1.67A2.57,2.57,0,0,0,169,458a6.91,6.91,0,0,0,.68-.79,2.83,2.83,0,0,0-1.24-4.4Z" style="isolation:isolate;opacity:0.2"></path><polygon points="144.15 445.44 145.03 430.61 159.12 431.64 154.33 446.51 147.89 450.42 144.15 445.44" style="fill:#000000"></polygon><polygon points="144.15 445.44 145.03 430.61 159.12 431.64 154.33 446.51 147.89 450.42 144.15 445.44" style="fill:#fff;opacity:0.7000000000000001"></polygon><path d="M154.78,444.4h-2.92a2,2,0,0,0-1.67,1.09c-1.69,2.91-2.95,1.81-4.79-.92-1.16-.17-1.48,1.51-1.57,2l-2.19,10a1.66,1.66,0,0,0,.86,1.95,1.13,1.13,0,0,0,.36.06H166c3.68,0,4.75-4.53,2.3-5.3-6.82-1.9-11-4.25-13.14-6.76C154.81,446.08,155.21,445.76,154.78,444.4Z" style="fill:#000000"></path><path d="M161.13,447.25a1.68,1.68,0,0,0,.5-1.21.79.79,0,0,0-.24-.65c-.92-.81-4.58,1.34-5,1.59a.18.18,0,0,0-.09.13.21.21,0,0,0,.09.26,10.31,10.31,0,0,0,2.74.44A2.71,2.71,0,0,0,161.13,447.25Zm0-1.51a.3.3,0,0,1,.09.28,1.26,1.26,0,0,1-.36.88c-.83.78-2.83.45-3.91.19C158.49,446.25,160.65,445.3,161.16,445.74Z" style="fill:#263238"></path><path d="M156.53,447.42c1.1-.58,3.4-2.86,3.27-4.06a.69.69,0,0,0-.66-.64c-2-.29-2.86,4.25-2.86,4.44a.24.24,0,0,0,.05.22.11.11,0,0,0,.11,0Zm2.55-4.32c.37,0,.37.21.37.27.1.74-1.57,2.63-2.76,3.42.25-1.06,1-3.71,2.25-3.71Z" style="fill:#263238"></path><path d="M154.33,449.51a.2.2,0,0,1-.11,0,.24.24,0,0,1-.12-.33,3.83,3.83,0,0,1,2.67-2.15.24.24,0,0,1,.29.2.25.25,0,0,1-.2.29,3.32,3.32,0,0,0-2.31,1.88A.24.24,0,0,1,154.33,449.51Z" style="fill:#263238"></path><path d="M156.15,451.24a.2.2,0,0,1-.11,0,.25.25,0,0,1-.12-.34,3.84,3.84,0,0,1,2.67-2.15.25.25,0,1,1,.08.49,3.36,3.36,0,0,0-2.3,1.89A.26.26,0,0,1,156.15,451.24Z" style="fill:#263238"></path><path d="M158.41,452.69a.2.2,0,0,1-.11,0,.23.23,0,0,1-.11-.33,3.82,3.82,0,0,1,2.66-2.16.26.26,0,0,1,.29.21.26.26,0,0,1-.2.29,3.32,3.32,0,0,0-2.31,1.88A.24.24,0,0,1,158.41,452.69Z" style="fill:#263238"></path><path d="M169.31,456.64H141.63a1.65,1.65,0,0,0,.87,1.88,1.13,1.13,0,0,0,.36.06H166A3.54,3.54,0,0,0,169.31,456.64Z" style="fill:#fff;opacity:0.7000000000000001"></path><path d="M142.91,288.05l16-15,15.29,11.49s-17,21.3-20.3,24.63S142.91,288.05,142.91,288.05Z" style="fill:#000000"></path><path d="M142.91,288.05l16-15,15.29,11.49s-17,21.3-20.3,24.63S142.91,288.05,142.91,288.05Z" style="isolation:isolate;opacity:0.4"></path><path d="M154.42,308.58q-1.92-8.34-3.85-16.66l6.92,13.16Z" style="isolation:isolate;opacity:0.4"></path><path d="M102,356.61c1.13-5.08.86-13.38.86-13.38,0-18.54.71-41.47,1.41-47.88.27-2.52-3.32-5.61,3.19-7.45a57.79,57.79,0,0,1,11.72-1.69c7-.41,15.87-.27,25.8,0,0,0,4,7.17,8.93,20.77,0,0,1.53,14.24,2.57,23.45l2.76,20.86C155.51,357,135.41,361.4,102,356.61Z" style="fill:#000000"></path><path d="M102,356.89c1.14-5.08.87-13.38.87-13.38,0-18.53.71-41.46,1.41-47.88.27-2.51-2.67-6,3.85-7.85a49.61,49.61,0,0,1,11-1.57c6.84-.32,15.63-.28,25.8,0,0,0,4,7.19,8.93,20.79,0,0,1.61,14.5,2.65,23.71l2.76,20.87C155.59,357.31,135.49,361.69,102,356.89Z" style="isolation:isolate;opacity:0.4"></path><path d="M95.16,303.43l.31,20.38,19.31-3.94s.59-15.18.32-25.89c-.15-5.63-3.39-6.79-7.23-6.16A15.46,15.46,0,0,0,95.16,303.43Z" style="fill:#000000"></path><path d="M95.16,303.43l.31,20.38,19.31-3.94s.59-15.18.32-25.89c-.15-5.63-3.39-6.79-7.23-6.16A15.46,15.46,0,0,0,95.16,303.43Z" style="isolation:isolate;opacity:0.4"></path><path d="M114.6,322.29,119,321.1s-2.74-18.77-2.85-18.44.63,16.54.63,16.54l-3.19.91Z" style="isolation:isolate;opacity:0.4"></path><polygon points="116.94 459.12 112.65 459.12 110.78 348.29 118.82 348.29 116.94 459.12" style="fill:#263238"></polygon><polygon points="249.18 458.06 244.9 458.06 243.01 350.44 251.06 350.44 249.18 458.06" style="fill:#263238"></polygon><polygon points="201.86 458.06 197.57 458.06 195.69 350.44 203.74 350.44 201.86 458.06" style="fill:#263238"></polygon><rect x="108.98" y="341.56" width="145.7" height="8.88" style="fill:#263238"></rect><polygon points="249.18 458.06 244.9 458.06 243.01 350.44 251.06 350.44 249.18 458.06" style="fill:#fff;isolation:isolate;opacity:0.30000000000000004"></polygon><polygon points="201.86 458.06 197.57 458.06 195.69 350.44 203.74 350.44 201.86 458.06" style="fill:#fff;isolation:isolate;opacity:0.30000000000000004"></polygon><rect x="114.8" y="348.29" width="136.09" height="19.55" style="fill:#263238"></rect><rect x="196.17" y="350.44" width="54.72" height="17.4" style="fill:#fff;isolation:isolate;opacity:0.30000000000000004"></rect><polygon points="110.81 350.44 110.91 355.87 250.89 355.87 250.89 350.44 110.81 350.44" style="isolation:isolate;opacity:0.2"></polygon><rect x="145.32" y="334.16" width="64.61" height="7.37" style="fill:#000000"></rect><rect x="180.05" y="335.8" width="29.88" height="4.26" style="fill:#fff;opacity:0.8"></rect><rect x="145.32" y="334.16" width="32.31" height="7.37" style="opacity:0.2"></rect><rect x="149.8" y="326.79" width="64.61" height="7.37" style="fill:#263238"></rect><path d="M214.42,332.68H186.66a2.13,2.13,0,0,1-2.13-2.12h0a2.13,2.13,0,0,1,2.13-2.13h27.76Z" style="fill:#fff;opacity:0.8"></path><rect x="149.8" y="326.79" width="32.31" height="7.37" style="opacity:0.30000000000000004"></rect><path d="M98.92,323.11s1.87,14.51,3.61,17.82a9.46,9.46,0,0,0,7.86,4.24c11.12-.26,34.09-7,33.76-8l-2.6-8.93-25.19,2.87L114.14,320Z" style="fill:#e9b376"></path><path d="M139.29,330.49s.5-3.51,2.86-5.24,3.78-3.74,5.63-4.91,2.3,1,1.54,2.37-2.91,3.7-1.77,4.1,11.43-1.55,13-.82,0,1.57,0,1.57,2.31-.42,2.94.55-.74,1.66-.74,1.66,1.56-.23,1.6.89-9.09,3.71-9.38,4c0,0,5.25-2.29,6.24-1.24s-1.86,2.47-4.11,3.65a17.18,17.18,0,0,1-7.91,1.66c-3.24,0-7.7.64-9-2A12.34,12.34,0,0,1,139.29,330.49Z" style="fill:#e9b376"></path><path d="M121.65,266.91a54.13,54.13,0,0,1,0,10.8c-.09,2.48-1.51,6.23-2.52,8.5l15.31,9.64c-.38-9.18.13-14.92,5.72-17.22C147.8,275.39,121.65,266.91,121.65,266.91Z" style="fill:#e9b376"></path><path d="M121.65,266.91A56.84,56.84,0,0,1,122.1,278c3.17,4.72,7.24,9.24,12.47,11-.12-2,0-8.1,5.59-10.4C147.8,275.39,121.65,266.91,121.65,266.91Z" style="isolation:isolate;opacity:0.2"></path><path d="M141.11,237.79s7.86,4.46,6.52,13.45-16-6.3-16-6.3Z" style="fill:#263238"></path><path d="M111,261.38c5.52,10.74,8.12,17.33,16.83,20.28,13.11,4.48,26.3-7.17,24.52-19.49-1.54-11.1-10.32-26.77-24.39-26S105.49,250.67,111,261.38Z" style="fill:#e9b376"></path><path d="M132.43,260c.38,1.14,1.31,1.87,2.06,1.6s1-1.39.64-2.53-1.32-1.86-2.07-1.6S132.08,258.84,132.43,260Z" style="fill:#263238"></path><path d="M143.43,254.07c.39,1.14,1.32,1.87,2.06,1.6s1-1.4.64-2.54-1.31-1.85-2.06-1.6S143.06,252.93,143.43,254.07Z" style="fill:#263238"></path><path d="M132.15,250.91a.88.88,0,0,0,0-.43.74.74,0,0,0-.91-.45,6.92,6.92,0,0,0-4.62,4.52.7.7,0,0,0,.49.86h0a.72.72,0,0,0,.87-.5h0a5.54,5.54,0,0,1,3.76-3.53A.76.76,0,0,0,132.15,250.91Z" style="fill:#263238"></path><path d="M146.07,245.49a.75.75,0,0,0,.29-.32.74.74,0,0,0-.46-.9,7,7,0,0,0-6.4.93.7.7,0,0,0-.13,1h0a.73.73,0,0,0,1,.11h0a5.58,5.58,0,0,1,5.12-.64A.69.69,0,0,0,146.07,245.49Z" style="fill:#263238"></path><path d="M141.8,258.12l4.21,1.43s-.4,1.65-3.45,3.09Z" style="fill:#d58745"></path><path d="M107.25,253.79s-5.62-6.67,1.6-12.55c2.17-1.76,6.25-7.9,8.69-11.73a2.58,2.58,0,0,1,4.68.67l0,0c1.43-1.19,2.82-2.44,4.14-3.76a6.64,6.64,0,0,1,9.08-.14c1.91,1.72,3.65,3.71,3.78,5.4l1.52-1.33a2,2,0,0,1,3.35,1.93c-.87,4.39-2.81,10.05-7.09,11.42-7.25,2.33-14.76,1.46-12.28,11.34S122,268.37,122,268.37l-.39,9.84s-9-.85-13.5-10.78S107.25,253.79,107.25,253.79Z" style="fill:#263238"></path><path d="M123.37,265.08s-4.78-5.51-7.44-2.45,1.39,13.51,6.29,11.95S126.68,267.81,123.37,265.08Z" style="fill:#e9b376"></path><path d="M144.87,266.08a12,12,0,0,1-.64,5l-.89.09c-4,.39-6-.76-7-2.16a5.59,5.59,0,0,1-.89-3.73c2.26,1.07,6,1,8.06.88A12.65,12.65,0,0,0,144.87,266.08Z" style="fill:#263238"></path><path d="M143.49,266.19l-.23,1.48c-3.79.35-6.51.09-7.81-.94a4.83,4.83,0,0,1,0-1.42C137.69,266.38,141.43,266.31,143.49,266.19Z" style="fill:#fff"></path><path d="M143.34,271.2c-4,.39-6-.76-7-2.16a13.25,13.25,0,0,1,4.56.46A5,5,0,0,1,143.34,271.2Z" style="fill:#c05854"></path><path d="M121.1,271.77a.2.2,0,0,1-.13,0c-2-1.24-3.44-4-2.37-6.15a.25.25,0,0,1,.33-.12.25.25,0,0,1,.12.34c-.92,1.89.39,4.37,2.18,5.51a.24.24,0,0,1,.08.34A.25.25,0,0,1,121.1,271.77Z" style="opacity:0.30000000000000004"></path></g></svg>
